<svg xmlns:dc="http://purl.org/dc/elements/1.1/" xmlns:cc="http://creativecommons.org/ns#" xmlns:rdf="http://www.w3.org/1999/02/22-rdf-syntax-ns#" xmlns:svg="http://www.w3.org/2000/svg" xmlns="http://www.w3.org/2000/svg" xmlns:sodipodi="http://sodipodi.sourceforge.net/DTD/sodipodi-0.dtd" xmlns:inkscape="http://www.inkscape.org/namespaces/inkscape" version="1.1" x="0px" y="0px" viewBox="0 0 100 125"><g transform="translate(0,-952.36218)"><path style="font-size:medium;font-style:normal;font-variant:normal;font-weight:normal;font-stretch:normal;text-indent:0;text-align:start;text-decoration:none;line-height:normal;letter-spacing:normal;word-spacing:normal;text-transform:none;direction:ltr;block-progression:tb;writing-mode:lr-tb;text-anchor:start;baseline-shift:baseline;opacity:1;color:#000000;fill:#000000;fill-opacity:1;stroke:none;stroke-width:4;marker:none;visibility:visible;display:inline;overflow:visible;enable-background:accumulate;font-family:Sans;-inkscape-font-specification:Sans" d="M 49.78125 5.96875 A 2.0002 2.0002 0 0 0 48 8 L 48 32 A 2.0002 2.0002 0 1 0 52 32 L 52 8 A 2.0002 2.0002 0 0 0 49.78125 5.96875 z M 20.09375 18.28125 A 2.0002 2.0002 0 0 0 18.875 21.6875 L 35.84375 38.6875 A 2.0108349 2.0108349 0 0 0 38.6875 35.84375 L 21.71875 18.875 A 2.0002 2.0002 0 0 0 20.09375 18.28125 z M 79.46875 18.28125 A 2.0002 2.0002 0 0 0 78.28125 18.875 L 61.3125 35.84375 A 2.0108349 2.0108349 0 0 0 64.15625 38.6875 L 81.125 21.6875 A 2.0002 2.0002 0 0 0 79.46875 18.28125 z M 7.8125 48 A 2.0021961 2.0021961 0 1 0 8 52 L 32 52 A 2.0002 2.0002 0 1 0 32 48 L 8 48 A 2.0002 2.0002 0 0 0 7.8125 48 z M 67.8125 48 A 2.0021961 2.0021961 0 1 0 68 52 L 92 52 A 2.0002 2.0002 0 1 0 92 48 L 68 48 A 2.0002 2.0002 0 0 0 67.8125 48 z M 37.21875 60.6875 A 2.0002 2.0002 0 0 0 35.84375 61.3125 L 18.875 78.28125 A 2.0002 2.0002 0 1 0 21.71875 81.09375 L 38.6875 64.125 A 2.0002 2.0002 0 0 0 37.21875 60.6875 z M 62.71875 60.6875 A 2.0002 2.0002 0 0 0 61.3125 64.125 L 78.28125 81.09375 A 2.0002 2.0002 0 1 0 81.125 78.28125 L 64.15625 61.3125 A 2.0002 2.0002 0 0 0 62.71875 60.6875 z M 49.78125 65.96875 A 2.0002 2.0002 0 0 0 48 68 L 48 92 A 2.0002 2.0002 0 1 0 52 92 L 52 68 A 2.0002 2.0002 0 0 0 49.78125 65.96875 z " transform="translate(0,952.36218)"/></g><text x="0" y="115" fill="#000000" font-size="5px" font-weight="bold" font-family="'Helvetica Neue', Helvetica, Arial-Unicode, Arial, Sans-serif">Created by creative outlet</text><text x="0" y="120" fill="#000000" font-size="5px" font-weight="bold" font-family="'Helvetica Neue', Helvetica, Arial-Unicode, Arial, Sans-serif">from the Noun Project</text></svg>